# xmcd
#
# Track frame offsets:
#	150
#	21032
#	38326
#	52258
#	66428
#	84202
#	98639
#	111889
#	128454
#	145136
#
# Disc length: 2105 seconds
#
# Revision: 0
# Processed by: cddbd v1.5.2PL0 Copyright (c) Steve Scherf et al.
# Submitted via: dBpowerAMP V4.0
#
DISCID=7908370a
DTITLE=Heriberto Zerpa - Mar y sentimientos
DYEAR=2008
DGENRE=Country
TTITLE0=Juan Casalla "El chacalote"
TTITLE1=Testigo de mi crecer
TTITLE2=El chinchorro
TTITLE3=Fuente para la vida
TTITLE4=Pepe Rodríguez "el Faro"
TTITLE5=El Pajar de Arguineguín
TTITLE6=A mi playa
TTITLE7=Malagueñas marineras
TTITLE8=Aparcera de mi amor
TTITLE9=Somos costeros
EXTD=
EXTT0=
EXTT1=
EXTT2=
EXTT3=
EXTT4=
EXTT5=
EXTT6=
EXTT7=
EXTT8=
EXTT9=
PLAYORDER=
